<svg xmlns="http://www.w3.org/2000/svg" viewBox="0 0 1734 600"><defs><style>.a{fill:#145189;}</style></defs><path class="a" d="M571,526.2c-.5-1.7-3.2-7.2-5.5-12-10-20.9-28.7-59.7-44-119-18.7-72.3-26.5-152.8-23.3-239.3.9-23.6-1.6-33.4-3.1-37-4.4,1.7-15.9,8.8-39.6,36.3-20.7,24-43.4,55-65.5,85-19.4,26.5-37.7,51.5-53.1,69.6-8.8,10.3-16,17.7-22.2,22.5-11.2,9-21.7,11.3-31,7-16.1-7.4-15.1-28.2-14.7-36,.6-13.3,3.8-31.8,9.6-56.6,12.9-55,10.7-74.6,9.1-80.6-7.4,2.7-31.9,16.8-90,90.8-37.4,47.5-69.6,95.7-69.9,96.1L99.2,334c.4-.6,36.3-54.2,76.7-104.9,24-30.1,45.1-53.5,62.5-69.5s42.5-35.3,63.9-26.1c13.5,5.9,20.5,20.4,20.9,43.2.4,18.6-3.3,44.1-11.2,77.8-4.4,18.7-6.7,31.6-7.8,40.5,3.4-3.7,7.6-8.6,12.7-14.8,13.4-16.5,29-37.8,45.5-60.3,24.2-33,49.2-67.1,72-92.8,13-14.6,24-25,33.7-31.9,14.4-10.4,27.6-13.6,39-9.6,24.6,8.6,26.5,42.7,25.5,71.5-7.3,194.3,44.4,301.7,63.8,342.2,4.4,9,6.7,13.9,7.9,18.3L570.9,526C571,526,571,526.1,571,526.2Z"/><path class="a" d="M628.2,376.3H641c9.4,0,17,4.6,17,16.5,0,8.4-3.9,16.1-15.2,16.1H628.2V376.3Zm-10.7,41.4h23.6c18.1,0,28.1-7.2,28.1-24.8,0-10.7-4.7-18.9-15.5-21.4v-.2c7.9-2.3,12.7-10.2,12.7-18.1,0-16.9-11-22.3-22.3-22.3H617.5v86.8Zm10.7-78.1h12c10.5,0,15,5.2,15,14.2,0,13.4-10.2,14.5-14.7,14.5H628.2V339.6Z"/><path class="a" d="M684.8,378.3v-2.4c0-3.9,1.2-17,11.9-17,9,0,11.3,8.6,11.3,15.9v3.5Zm33.9,8v-4.1c0-14-1.8-31.4-21.8-31.4s-23.2,18.9-23.2,35.2c0,22.4,6.7,33.5,22.6,33.5,17.8,0,21.9-16.2,21.9-23.1H708c0,4.9-1.3,15.1-11.1,15.1-12.5,0-12.5-15.1-12.5-25.1Z"/><path class="a" d="M724.9,417.7h10.2V376.5c0-10.8,8.3-15.5,13.4-15.5a29.9,29.9,0,0,1,5.5.5v-10a10.3,10.3,0,0,0-4.5-.7c-7.3,0-11.2,5.2-14.1,11.4h-.2v-9.7H725v65.2Z"/><path class="a" d="M801.2,352.5H791v45c0,9.5-7.4,13.1-12.9,13.1-9.2,0-9.6-8.2-9.6-13.1v-45H758.3v46.2c0,7.7,0,20.7,17.2,20.7,6.3,0,13.1-3.4,15.8-9.4h.2v7.7h9.7V352.5Z"/><path class="a" d="M814.9,417.7h10.2V360.5h11.2v-8H825.1v-7.7c0-4.5,2.2-6.2,6.6-6.2h4.7v-8.8H829c-9.9,0-14.1,5.1-14.1,15v7.7h-9.5v8h9.5v57.2Z"/><path class="a" d="M878.9,371.6c-.1-7.7-.9-20.8-19.8-20.8-11.3,0-20.8,5.8-20.8,18s8.2,15.8,16.1,18.5,15.9,4.5,15.9,13.3-7.5,10.8-10.8,10.8c-10,0-12.2-7.2-12.2-15.1H837.1c0,6.7.2,23.1,22.4,23.1,12.2,0,21-6.7,21-20.4s-8-15.7-15.9-18.4-16.1-4.1-16.1-11.8,7.3-10,10.6-10c7.4,0,9.6,4.5,9.6,12.8Z"/><path class="a" d="M897.2,385.1c0-12.7,2.2-25.6,13.1-25.6s11.9,10,11.9,25.6-2.4,25.6-11.9,25.6-13.1-12.2-13.1-25.6Zm-9.6,32.6h9.7v-8h.2c1.3,4.9,7.1,9.7,14.1,9.7,15.1,0,21.3-15.9,21.3-34.3,0-13.6-2.2-34.3-19.8-34.3-6.6,0-12.8,3.5-15.1,9.1h-.2V330.8H887.6v86.9Z"/><path class="a" d="M941.8,417.7H952V352.5H941.8v65.2Zm0-75.2H952V330.8H941.8v11.7Z"/><polygon class="a" points="963.9 417.7 974.2 417.7 974.2 330.8 963.9 330.8 963.9 417.7"/><path class="a" d="M993.7,385.1c0-15.6,2.4-25.6,11.9-25.6,11,0,13.1,12.9,13.1,25.6,0,14.8-1.8,25.6-13.1,25.6-9.4,0-11.9-10-11.9-25.6Zm34.7-54.3h-10.2v29.1h-.2c-2.3-5.6-8.5-9.1-14.4-9.1-18.4,0-20.6,20.7-20.6,34.3,0,20.6,5.8,34.3,21.3,34.3,7.1,0,12.8-4.9,14.1-9.7h.2v8h9.7V330.8Z"/><path class="a" d="M1048,378.3v-2.4c0-3.9,1.2-17,11.9-17,9,0,11.3,8.6,11.3,15.9v3.5Zm33.9,8v-4.1c0-14-1.8-31.4-21.8-31.4s-23.2,18.9-23.2,35.2c0,22.4,6.7,33.5,22.6,33.5,17.8,0,21.9-16.2,21.9-23.1h-10.2c0,4.9-1.3,15.1-11.1,15.1-12.5,0-12.5-15.1-12.5-25.1Z"/><path class="a" d="M1090.4,417.7h10.2v-45c0-9.5,7.4-13.1,12.9-13.1,9.2,0,9.6,8.2,9.6,13.1v45h10.2V371.5c0-7.7,0-20.7-17.2-20.7-6.3,0-13.1,3.4-15.8,9.4h-.2v-7.7h-9.7v65.2Z"/><path class="a" d="M1152.4,385.1c0-15.6,2.4-25.6,11.9-25.6,11,0,13.1,12.9,13.1,25.6,0,14.8-1.8,25.6-13.1,25.6-9.5,0-11.9-10-11.9-25.6Zm34.6-54.3h-10.2v29.1h-.2c-2.3-5.6-8.5-9.1-14.4-9.1-18.4,0-20.6,20.7-20.6,34.3,0,20.6,5.8,34.3,21.3,34.3,7.1,0,12.8-4.9,14.1-9.7h.2v8h9.7V330.8Z"/><path class="a" d="M1206.6,378.3v-2.4c0-3.9,1.2-17,11.9-17,9,0,11.3,8.6,11.3,15.9v3.5Zm34,8v-4.1c0-14-1.8-31.4-21.8-31.4s-23.2,18.9-23.2,35.2c0,22.4,6.7,33.5,22.6,33.5,17.8,0,21.9-16.2,21.9-23.1h-10.2c0,4.9-1.3,15.1-11.1,15.1-12.5,0-12.5-15.1-12.5-25.1Z"/><path class="a" d="M1330.4,353.4c-.2-15.9-7.8-24.2-24.3-24.2-22,0-25.4,15.9-25.4,24,0,31.9,41,17.6,41,42.2,0,9.2-6.6,15.3-15.1,15.3-15.7,0-16.3-10.5-16.3-20.2h-10.7c0,18.5,6,29,26.3,29,12.3,0,27-5.7,27-25.8,0-31.8-41-17.2-41-41.6,0-9.2,5.4-14.1,14.4-14.1s13.5,6.3,13.5,15.5Z"/><path class="a" d="M1381.7,372.3c0-7.5-3-21.5-20.8-21.5-20.1,0-23.2,18.9-23.2,35.2,0,22.4,6.7,33.5,22.6,33.5s21.4-14,21.4-24.3h-10.2c0,7.1-1.9,16.3-10.7,16.3-12.3,0-12.4-17-12.4-25.6,0-23.9,6.4-27,12.8-27s10.3,7.2,10.3,13.5Z"/><path class="a" d="M1389.5,417.7h10.2v-45c0-9.5,7.4-13.1,12.9-13.1,9.2,0,9.6,8.2,9.6,13.1v45h10.2V371.5c0-7.7,0-20.7-16.8-20.7-5.8,0-13,3.8-15.7,9.1h-.2V330.8h-10.2v86.9Z"/><path class="a" d="M1486,352.5h-10.2v45c0,9.5-7.4,13.1-12.9,13.1-9.2,0-9.6-8.2-9.6-13.1v-45H1443v46.2c0,7.7,0,20.7,17.2,20.7,6.3,0,13.1-3.4,15.8-9.4h.2v7.7h9.7V352.5Z"/><polygon class="a" points="1497.2 417.7 1507.4 417.7 1507.4 330.8 1497.2 330.8 1497.2 417.7"/><path class="a" d="M1527.4,378.3v-2.4c0-3.9,1.2-17,11.9-17,9,0,11.3,8.6,11.3,15.9v3.5Zm34,8v-4.1c0-14-1.8-31.4-21.8-31.4s-23.2,18.9-23.2,35.2c0,22.4,6.7,33.5,22.6,33.5,17.8,0,21.9-16.2,21.9-23.1h-10.2c0,4.9-1.3,15.1-11.1,15.1-12.5,0-12.5-15.1-12.5-25.1Z"/><path class="a" d="M1569.8,417.7H1580v-45c0-9.5,7.4-13.1,12.9-13.1,9.2,0,9.6,8.2,9.6,13.1v45h10.2V371.5c0-7.7,0-20.7-17.2-20.7-6.3,0-13.1,3.4-15.8,9.4h-.2v-7.7h-9.7v65.2Z"/><polygon class="a" points="617.2 286.7 645.8 286.7 645.8 163.4 646.2 163.4 673.7 286.7 698 286.7 725.4 163.4 725.9 163.4 725.9 286.7 754.4 286.7 754.4 132.2 708.3 132.2 686.1 241.3 685.6 241.3 663.6 132.2 617.2 132.2 617.2 286.7"/><path class="a" d="M822.1,286.7h28.6V170.3H820.8v77.3c0,13-5.6,19.3-15.8,19.3s-12.8-4.5-12.8-16.2V170.4H762.3v86.3c0,22.9,11,33.1,29.6,33.1,12.6,0,23.4-5.2,29.6-16.7h.4l.2,13.6Z"/><polygon class="a" points="860.2 286.7 890.1 286.7 890.1 132.2 860.2 132.2 860.2 286.7"/><path class="a" d="M912.9,170.3H897.8v20.3h15.1v66.7c0,23.6,4.3,30.7,27.7,30.7a175.7,175.7,0,0,0,19.5-1.3V265.9a65.3,65.3,0,0,1-6.7.4c-8.7,0-10.6-3.7-10.6-12.8v-63h17.3V170.2H942.8V137H912.9v33.3Z"/><path class="a" d="M967.4,286.7h29.9V170.3H967.4V286.7Zm0-130.7h29.9V130.5H967.4V156Z"/><polygon class="a" points="1125.1 260 1071.5 129 1043.3 129 1043.3 287 1063.4 287 1063.4 158.6 1063.8 158.6 1116.2 287 1134 287 1186.6 156 1186.9 156 1186.9 287 1207 287 1207 129 1179.2 129 1125.1 260"/><path class="a" d="M1328.6,235.7v-2.9c0-48-27.6-65.7-53.7-65.7-38.6,0-57.5,28.6-57.5,62s18.9,62,57.5,62c19.5,0,41.6-11.3,51.1-39.2h-20.1c-6.4,16.4-21.2,20.6-32,20.6-16.8,0-35-12.8-36.5-36.7h91.2ZM1238,218.4c2.8-20.8,18.5-32.8,35.9-32.8s31.8,11.7,34.6,32.8Z"/><path class="a" d="M1429.2,287h18.9V127.6h-18.9v59.5h-.4c-7.6-12.6-22.9-18.8-37.7-18.8-29.9,0-53.9,22.4-53.9,61.3s24,61.3,53.9,61.3c14.6,0,30.3-6.6,37.7-18.8h.4V287Zm-71.9-57.3c0-26.6,14.4-42.7,36.3-42.7s36.7,16.2,36.7,42.7c0,21.9-11,42.7-36.7,42.7s-36.3-20.8-36.3-42.7Z"/><path class="a" d="M1467.4,287h18.9V171h-18.9V287Zm0-135h18.9V127.7h-18.9V152Z"/><path class="a" d="M1520.6,207.3c.6-17.9,14.4-23,30.7-23s28.6,3.1,28.6,19c0,10.4-6.6,12.6-17.2,13.9l-21.6,2.7c-31.8,4-42.6,14.8-42.6,36.1,0,15.1,7.4,35,40.3,35,16.1,0,34.6-6.9,42.2-18.8,1.3,13.1,7.6,16.2,17,16.2a83,83,0,0,0,14.8-1.3V271.6a35,35,0,0,1-6.6.9c-5.9,0-8.5-3.1-8.5-10V200c0-27-25.4-33-45.6-33-29.7,0-46.7,11.3-49.2,40.3Zm59.2,33.9c0,19.3-18,32.5-39.4,32.5-13.8,0-23.1-7.5-23.1-18.4s7.8-16.8,22.5-19l21.4-3.1c10.6-1.5,15.7-3.1,18.5-6.9v14.9Z"/></svg>